<?xml version="1.0" standalone="no"?><!DOCTYPE svg PUBLIC "-//W3C//DTD SVG 1.1//EN" "http://www.w3.org/Graphics/SVG/1.1/DTD/svg11.dtd"><svg t="1582122509802" class="icon" viewBox="0 0 1024 1024" version="1.1" xmlns="http://www.w3.org/2000/svg" p-id="4894" xmlns:xlink="http://www.w3.org/1999/xlink" width="200" height="200"><defs><style type="text/css"></style></defs><path d="M638.1 586.4H303.6c-7.7 0-14-6.3-14-14s6.3-14 14-14h334.5c7.7 0 14 6.3 14 14s-6.2 14-14 14zM570.6 723.1h-267c-7.7 0-14-6.3-14-14s6.3-14 14-14h266.9c7.7 0 14 6.3 14 14 0.1 7.7-6.2 14-13.9 14zM681.5 452.8H303.6c-7.7 0-14-6.3-14-14s6.3-14 14-14h377.8c7.7 0 14 6.3 14 14s-6.2 14-13.9 14z" fill="#8a8a8a" p-id="4895"></path><path d="M499.7 919.1H194.4c-19.3 0-35-14.2-35-31.6V271.8c0-17.4 15.7-31.6 35-31.6H318v-28H194.4c-34.7 0-63 26.7-63 59.6v615.7c0 32.9 28.3 59.6 63 59.6h305.3c7.7 0 14-6.3 14-14 0-7.8-6.3-14-14-14zM794.8 212.2H681.3v28h113.6c19.3 0 35 14.2 35 31.6v293.6c0 7.7 6.3 14 14 14s14-6.3 14-14V271.8c0-32.9-28.3-59.6-63.1-59.6z" fill="#8a8a8a" p-id="4896"></path><path d="M647.5 302.7H351.8c-26.4 0-47.8-21.4-47.8-47.8v-54.5c0-26.4 21.5-47.8 47.8-47.8h49.6c5.3-49.5 47.4-88.2 98.2-88.2s92.9 38.7 98.2 88.2h49.6c26.4 0 47.8 21.4 47.8 47.8v54.5c0.1 26.4-21.4 47.8-47.7 47.8z m-295.7-122c-10.9 0-19.8 8.9-19.8 19.8V255c0 10.9 8.9 19.8 19.8 19.8h295.7c10.9 0 19.8-8.9 19.8-19.8v-54.5c0-10.9-8.9-19.8-19.8-19.8h-63.2c-3.8 0-7.5-1.6-10.1-4.3-2.6-2.7-4-6.4-3.9-10.3l0.2-2.8c0-39-31.8-70.8-70.8-70.8s-70.8 31.8-70.8 70.8l0.2 2.8c0.2 3.8-1.3 7.5-3.9 10.3-2.6 2.7-6.3 4.3-10.1 4.3h-63.3zM616.6 959.5c-6.9 0-13.4-2.1-18.8-6.2-8-6.1-12.4-15.9-12.1-26.8l2.7-98.5c0.2-8.7 3.5-17.7 9.2-25.1l144.8-189c13.2-17.2 36-22.1 50.8-10.7l91.8 70.3c14.8 11.3 16.1 34.6 2.9 51.8l-144.8 189c-5.7 7.4-13.4 12.9-21.8 15.4l-94.4 28.2c-3.5 1.1-7 1.6-10.3 1.6zM774.4 625c-2.5 0-6.5 1.7-9.8 6L619.8 820c-2.1 2.7-3.3 5.9-3.4 8.8l-2.7 98.5c0 1.8 0.4 3.2 1.1 3.8 0.7 0.6 2.2 0.6 3.9 0.1l94.4-28.2c2.7-0.8 5.5-2.9 7.6-5.6l144.8-189c4.3-5.6 3.9-11.3 2.3-12.6L776 625.5c-0.2-0.4-0.8-0.5-1.6-0.5z" fill="#8a8a8a" p-id="4897"></path><path d="M842.8 772.8c-3 0-6-0.9-8.5-2.9l-121-92.7c-6.1-4.7-7.3-13.5-2.6-19.6 4.7-6.1 13.5-7.3 19.6-2.6l121 92.7c6.1 4.7 7.3 13.5 2.6 19.6-2.8 3.6-6.9 5.5-11.1 5.5z" fill="#8a8a8a" p-id="4898"></path></svg>