<svg t="1582260344258" class="icon" viewBox="0 0 1031 1024" version="1.1" xmlns="http://www.w3.org/2000/svg" p-id="2842" width="200" height="200"><path d="M980.202 412.761l-131.385-113.302 0-177.187c-68.636-83.573-120.533 4.822-120.533 4.822l0 65.089-137.412-119.331c-80.689-81.16-157.901 0-157.901 0s-264.374 230.201-353.168 306.163c-102.384 87.59-8.439 130.779-8.439 130.779l96.48 47.203 1.158 164.341-81.965 74.723c-57.86 84.385 15.667 153.082 15.667 153.082 103.659 103.669 201.293-13.252 201.293-13.252l501.429 0c42.188-6.031 49.418-61.476 49.418-61.476l3.618-309.776 115.717-54.24c50.622-47.009 6.025-97.639 6.025-97.639zM769.963 140.849l40.75 0 0 122.528-40.75-41.576 0-80.952zM249.184 922.914c0 0-47.612 57.251-104.865 0 0 0-47.01-42.193 0-94.02l229.018-229.018c0 0-20.428-194.662 167.543-186.478l3.618 34.605-67.499 63.881 84.373 89.2 77.146-69.92 33.744 7.236c0 0 15.735 186.821-195.262 162.721l-227.814 221.793zM927.233 483.476l-115.712 51.833-8.435 302.546c-2.413 57.853-37.366 59.058-37.366 59.058l-413.438 0 141.025-141.03c289.867 2.833 218.191-251.618 218.191-251.618l-89.296-11.072-56.355 52.217-29.454-31.97 54.88-51.762-10.199-97.252c-281.032-28.268-263.747 214.28-263.747 214.28l-101.252 100.042 1.207-157.904-90.404-40.979c-51.827-21.698-6.026-66.297-6.026-66.297l327.857-291.696c66.466-63.884 127.768-2.408 127.768-2.408l350.755 317.007c40.987 27.725 0 47.007 0 47.007z" p-id="2843" fill="#bfbfbf"></path></svg>