<svg t="1582185150175" class="icon" viewBox="0 0 1024 1024" version="1.1" xmlns="http://www.w3.org/2000/svg" p-id="5352" width="200" height="200"><path d="M531 510.08a363.81 363.81 0 0 1 118.65 19.74 25 25 0 0 0 16.27-47.28 411 411 0 0 0-41.84-12c71.47-34.44 120.9-107.61 120.9-192.1 0-117.51-95.6-213.11-213.11-213.11S318.73 161 318.73 278.48c0 84.26 49.16 157.25 120.3 191.81A414.33 414.33 0 0 0 116.37 874v41.76a25 25 0 0 0 25 25h335.21a25 25 0 0 0 0-50H166.37V874c0.35-200.65 163.91-363.92 364.63-363.92z m-162.27-231.6c0-89.94 73.16-163.11 163.1-163.11s163.11 73.17 163.11 163.11-73.17 163.1-163.11 163.1-163.1-73.17-163.1-163.1z" fill="#dbdbdb" p-id="5353"></path><path d="M547.43 601.79a25 25 0 0 0 25 25h292.23a25 25 0 0 0 0-50H572.43a25 25 0 0 0-25 25zM864.66 722.91H572.43a25 25 0 0 0 0 50h292.23a25 25 0 0 0 0-50zM864.66 852.42H572.43a25 25 0 0 0 0 50h292.23a25 25 0 0 0 0-50z" fill="#dbdbdb" p-id="5354"></path></svg>