<?xml version="1.0" standalone="no"?><!DOCTYPE svg PUBLIC "-//W3C//DTD SVG 1.1//EN" "http://www.w3.org/Graphics/SVG/1.1/DTD/svg11.dtd"><svg t="1581928559245" class="icon" viewBox="0 0 1024 1024" version="1.1" xmlns="http://www.w3.org/2000/svg" p-id="3947" xmlns:xlink="http://www.w3.org/1999/xlink" width="200" height="200"><defs><style type="text/css"></style></defs><path d="M526.5 79.9c21 0 38.2 17.1 38.2 38.2v825.5H78.5V118.1c0-21 17.1-38.2 38.2-38.2h409.8" fill="#FF5855" p-id="3948"></path><path d="M526.5 79.9c21 0 38.2 17.1 38.2 38.2v825.5H78.5V118.1c0-21 17.1-38.2 38.2-38.2h409.8m0-16H116.6c-29.8 0-54.2 24.4-54.2 54.2v841.5h518.3V118.1c0-29.8-24.4-54.2-54.2-54.2z" fill="#581166" p-id="3949"></path><path d="M381.6 738.1v207.4h-120V738.1h120m16-14.1h-152v235.6h152V724z" fill="#581166" p-id="3950"></path><path d="M381.6 738.1v207.4h-120V738.1h120" fill="#FFEBEB" p-id="3951"></path><path d="M194.7 173c6.1 0 11.1 5 11.1 11.1v49.3c0 6.1-5 11.1-11.1 11.1h-49.3c-6.1 0-11.1-5-11.1-11.1v-49.3c0-6.1 5-11.1 11.1-11.1h49.3m0-16h-49.3c-15 0-27.1 12.1-27.1 27.1v49.3c0 15 12.1 27.1 27.1 27.1h49.3c15 0 27.1-12.1 27.1-27.1v-49.3c-0.1-15-12.2-27.1-27.1-27.1z" fill="#581166" p-id="3952"></path><path d="M194.7 173c6.1 0 11.1 5 11.1 11.1v49.3c0 6.1-5 11.1-11.1 11.1h-49.3c-6.1 0-11.1-5-11.1-11.1v-49.3c0-6.1 5-11.1 11.1-11.1h49.3" fill="#CAE8FF" p-id="3953"></path><path d="M346.2 173c6.1 0 11.1 5 11.1 11.1v49.3c0 6.1-5 11.1-11.1 11.1h-49.3c-6.1 0-11.1-5-11.1-11.1v-49.3c0-6.1 5-11.1 11.1-11.1h49.3m0-16h-49.3c-15 0-27.1 12.1-27.1 27.1v49.3c0 15 12.1 27.1 27.1 27.1h49.3c15 0 27.1-12.1 27.1-27.1v-49.3c0-15-12.1-27.1-27.1-27.1z" fill="#581166" p-id="3954"></path><path d="M346.2 173c6.1 0 11.1 5 11.1 11.1v49.3c0 6.1-5 11.1-11.1 11.1h-49.3c-6.1 0-11.1-5-11.1-11.1v-49.3c0-6.1 5-11.1 11.1-11.1h49.3" fill="#CAE8FF" p-id="3955"></path><path d="M497.8 173c6.1 0 11.1 5 11.1 11.1v49.3c0 6.1-5 11.1-11.1 11.1h-49.3c-6.1 0-11.1-5-11.1-11.1v-49.3c0-6.1 5-11.1 11.1-11.1h49.3m0-16h-49.3c-15 0-27.1 12.1-27.1 27.1v49.3c0 15 12.1 27.1 27.1 27.1h49.3c15 0 27.1-12.1 27.1-27.1v-49.3c0-15-12.1-27.1-27.1-27.1z" fill="#581166" p-id="3956"></path><path d="M497.8 173c6.1 0 11.1 5 11.1 11.1v49.3c0 6.1-5 11.1-11.1 11.1h-49.3c-6.1 0-11.1-5-11.1-11.1v-49.3c0-6.1 5-11.1 11.1-11.1h49.3" fill="#CAE8FF" p-id="3957"></path><path d="M194.7 341.7c6.1 0 11.1 5 11.1 11.1v49.3c0 6.1-5 11.1-11.1 11.1h-49.3c-6.1 0-11.1-5-11.1-11.1v-49.3c0-6.1 5-11.1 11.1-11.1h49.3m0-16h-49.3c-15 0-27.1 12.1-27.1 27.1v49.3c0 15 12.1 27.1 27.1 27.1h49.3c15 0 27.1-12.1 27.1-27.1v-49.3c-0.1-15-12.2-27.1-27.1-27.1z" fill="#581166" p-id="3958"></path><path d="M194.7 341.7c6.1 0 11.1 5 11.1 11.1v49.3c0 6.1-5 11.1-11.1 11.1h-49.3c-6.1 0-11.1-5-11.1-11.1v-49.3c0-6.1 5-11.1 11.1-11.1h49.3" fill="#CAE8FF" p-id="3959"></path><path d="M346.2 341.7c6.1 0 11.1 5 11.1 11.1v49.3c0 6.1-5 11.1-11.1 11.1h-49.3c-6.1 0-11.1-5-11.1-11.1v-49.3c0-6.1 5-11.1 11.1-11.1h49.3m0-16h-49.3c-15 0-27.1 12.1-27.1 27.1v49.3c0 15 12.1 27.1 27.1 27.1h49.3c15 0 27.1-12.1 27.1-27.1v-49.3c0-15-12.1-27.1-27.1-27.1z" fill="#581166" p-id="3960"></path><path d="M346.2 341.7c6.1 0 11.1 5 11.1 11.1v49.3c0 6.1-5 11.1-11.1 11.1h-49.3c-6.1 0-11.1-5-11.1-11.1v-49.3c0-6.1 5-11.1 11.1-11.1h49.3" fill="#CAE8FF" p-id="3961"></path><path d="M497.8 341.7c6.1 0 11.1 5 11.1 11.1v49.3c0 6.1-5 11.1-11.1 11.1h-49.3c-6.1 0-11.1-5-11.1-11.1v-49.3c0-6.1 5-11.1 11.1-11.1h49.3m0-16h-49.3c-15 0-27.1 12.1-27.1 27.1v49.3c0 15 12.1 27.1 27.1 27.1h49.3c15 0 27.1-12.1 27.1-27.1v-49.3c0-15-12.1-27.1-27.1-27.1z" fill="#581166" p-id="3962"></path><path d="M497.8 341.7c6.1 0 11.1 5 11.1 11.1v49.3c0 6.1-5 11.1-11.1 11.1h-49.3c-6.1 0-11.1-5-11.1-11.1v-49.3c0-6.1 5-11.1 11.1-11.1h49.3" fill="#CAE8FF" p-id="3963"></path><path d="M194.7 510.4c6.1 0 11.1 5 11.1 11.1v49.3c0 6.1-5 11.1-11.1 11.1h-49.3c-6.1 0-11.1-5-11.1-11.1v-49.3c0-6.1 5-11.1 11.1-11.1h49.3m0-16h-49.3c-15 0-27.1 12.1-27.1 27.1v49.3c0 15 12.1 27.1 27.1 27.1h49.3c15 0 27.1-12.1 27.1-27.1v-49.3c-0.1-15-12.2-27.1-27.1-27.1z" fill="#581166" p-id="3964"></path><path d="M194.7 510.4c6.1 0 11.1 5 11.1 11.1v49.3c0 6.1-5 11.1-11.1 11.1h-49.3c-6.1 0-11.1-5-11.1-11.1v-49.3c0-6.1 5-11.1 11.1-11.1h49.3" fill="#CAE8FF" p-id="3965"></path><path d="M346.2 510.4c6.1 0 11.1 5 11.1 11.1v49.3c0 6.1-5 11.1-11.1 11.1h-49.3c-6.1 0-11.1-5-11.1-11.1v-49.3c0-6.1 5-11.1 11.1-11.1h49.3m0-16h-49.3c-15 0-27.1 12.1-27.1 27.1v49.3c0 15 12.1 27.1 27.1 27.1h49.3c15 0 27.1-12.1 27.1-27.1v-49.3c0-15-12.1-27.1-27.1-27.1z" fill="#581166" p-id="3966"></path><path d="M346.2 510.4c6.1 0 11.1 5 11.1 11.1v49.3c0 6.1-5 11.1-11.1 11.1h-49.3c-6.1 0-11.1-5-11.1-11.1v-49.3c0-6.1 5-11.1 11.1-11.1h49.3" fill="#CAE8FF" p-id="3967"></path><path d="M497.8 510.4c6.1 0 11.1 5 11.1 11.1v49.3c0 6.1-5 11.1-11.1 11.1h-49.3c-6.1 0-11.1-5-11.1-11.1v-49.3c0-6.1 5-11.1 11.1-11.1h49.3m0-16h-49.3c-15 0-27.1 12.1-27.1 27.1v49.3c0 15 12.1 27.1 27.1 27.1h49.3c15 0 27.1-12.1 27.1-27.1v-49.3c0-15-12.1-27.1-27.1-27.1z" fill="#581166" p-id="3968"></path><path d="M497.8 510.4c6.1 0 11.1 5 11.1 11.1v49.3c0 6.1-5 11.1-11.1 11.1h-49.3c-6.1 0-11.1-5-11.1-11.1v-49.3c0-6.1 5-11.1 11.1-11.1h49.3" fill="#CAE8FF" p-id="3969"></path><path d="M906 408.8H580.7v534.7h363.5V447c0-21-17.1-38.2-38.2-38.2z" fill="#FF9B57" p-id="3970"></path><path d="M906 392.8H580.7v16H906c21 0 38.2 17.1 38.2 38.2V943.6H580.7v16h379.5V447c0-29.8-24.4-54.2-54.2-54.2z" fill="#581166" p-id="3971"></path><path d="M362.7 841.8m-13.2 0a13.2 13.2 0 1 0 26.4 0 13.2 13.2 0 1 0-26.4 0Z" fill="#581166" p-id="3972"></path><path d="M436.6 684.2H202.2c-4.4 0-8-3.6-8-8s3.6-8 8-8h234.4c4.4 0 8 3.6 8 8s-3.6 8-8 8z" fill="#581166" p-id="3973"></path><path d="M247.6 839.2H75.2c-4.4 0-8-3.6-8-8s3.6-8 8-8h172.4c4.4 0 8 3.6 8 8s-3.6 8-8 8z" fill="#581166" p-id="3974"></path><path d="M567.3 839.2H395c-4.4 0-8-3.6-8-8s3.6-8 8-8h172.4c4.4 0 8 3.6 8 8-0.1 4.4-3.7 8-8.1 8z" fill="#581166" p-id="3975"></path><path d="M703.9 480.5h-49.3c-6.1 0-11.1 5-11.1 11.1v49.3c0 6.1 5 11.1 11.1 11.1h49.3c6.1 0 11.1-5 11.1-11.1v-49.3c-0.1-6.1-5-11.1-11.1-11.1zM651.4 467.8h55.5c4.4 0 8-3.6 8-8s-3.6-8-8-8h-55.5c-4.4 0-8 3.6-8 8s3.6 8 8 8zM870.4 480.5H821c-6.1 0-11.1 5-11.1 11.1v49.3c0 6.1 5 11.1 11.1 11.1h49.3c6.1 0 11.1-5 11.1-11.1v-49.3c0-6.1-4.9-11.1-11-11.1zM817.9 467.8h55.5c4.4 0 8-3.6 8-8s-3.6-8-8-8h-55.5c-4.4 0-8 3.6-8 8s3.6 8 8 8z" fill="#581166" p-id="3976"></path><path d="M703.9 650.4h-49.3c-6.1 0-11.1 5-11.1 11.1v49.3c0 6.1 5 11.1 11.1 11.1h49.3c6.1 0 11.1-5 11.1-11.1v-49.3c-0.1-6.1-5-11.1-11.1-11.1zM651.4 637.8h55.5c4.4 0 8-3.6 8-8s-3.6-8-8-8h-55.5c-4.4 0-8 3.6-8 8s3.6 8 8 8zM870.4 650.4H821c-6.1 0-11.1 5-11.1 11.1v49.3c0 6.1 5 11.1 11.1 11.1h49.3c6.1 0 11.1-5 11.1-11.1v-49.3c0-6.1-4.9-11.1-11-11.1zM817.9 637.8h55.5c4.4 0 8-3.6 8-8s-3.6-8-8-8h-55.5c-4.4 0-8 3.6-8 8s3.6 8 8 8z" fill="#581166" p-id="3977"></path><path d="M703.9 820.4h-49.3c-6.1 0-11.1 5-11.1 11.1v49.3c0 6.1 5 11.1 11.1 11.1h49.3c6.1 0 11.1-5 11.1-11.1v-49.3c-0.1-6.2-5-11.1-11.1-11.1zM651.4 807.7h55.5c4.4 0 8-3.6 8-8s-3.6-8-8-8h-55.5c-4.4 0-8 3.6-8 8s3.6 8 8 8zM870.4 820.4H821c-6.1 0-11.1 5-11.1 11.1v49.3c0 6.1 5 11.1 11.1 11.1h49.3c6.1 0 11.1-5 11.1-11.1v-49.3c0-6.2-4.9-11.1-11-11.1zM817.9 807.7h55.5c4.4 0 8-3.6 8-8s-3.6-8-8-8h-55.5c-4.4 0-8 3.6-8 8s3.6 8 8 8z" fill="#581166" p-id="3978"></path><path d="M78.5 839.2h167.1v104.4H78.5zM397.6 839.2h167.1v104.4H397.6z" fill="#FF9292" p-id="3979"></path></svg>